<?xml version="1.0" encoding="UTF-8" standalone="no"?>
<svg
   xmlns:dc="http://purl.org/dc/elements/1.1/"
   xmlns:cc="http://creativecommons.org/ns#"
   xmlns:rdf="http://www.w3.org/1999/02/22-rdf-syntax-ns#"
   xmlns:svg="http://www.w3.org/2000/svg"
   xmlns="http://www.w3.org/2000/svg"
   xmlns:sodipodi="http://sodipodi.sourceforge.net/DTD/sodipodi-0.dtd"
   xmlns:inkscape="http://www.inkscape.org/namespaces/inkscape"
   inkscape:version="1.0 (4035a4fb49, 2020-05-01)"
   sodipodi:docname="linkedIn.svg"
   xml:space="preserve"
   width="144.083px"
   viewBox="0 0 144.083 144"
   version="1.1"
   id="linkedin"
   height="144px"
   enable-background="new 0 0 144.083 144"><metadata
     id="metadata9"><rdf:RDF><cc:Work
         rdf:about=""><dc:format>image/svg+xml</dc:format><dc:type
           rdf:resource="http://purl.org/dc/dcmitype/StillImage" /></cc:Work></rdf:RDF></metadata><defs
     id="defs7" /><sodipodi:namedview
     inkscape:current-layer="linkedin"
     inkscape:window-maximized="1"
     inkscape:window-y="-8"
     inkscape:window-x="-8"
     inkscape:cy="72"
     inkscape:cx="72.041496"
     inkscape:zoom="5.9027778"
     showgrid="false"
     id="namedview5"
     inkscape:window-height="1017"
     inkscape:window-width="1920"
     inkscape:pageshadow="2"
     inkscape:pageopacity="0"
     guidetolerance="10"
     gridtolerance="10"
     objecttolerance="10"
     borderopacity="1"
     bordercolor="#666666"
     pagecolor="#ffffff" /><path
     style="fill:#ffffff;fill-opacity:1"
     id="path2"
     d="M72.04,14.166c-31.939,0-57.833,25.894-57.833,57.833c0,31.94,25.893,57.835,57.833,57.835  c31.941,0,57.836-25.895,57.836-57.835C129.875,40.06,103.981,14.166,72.04,14.166z M48.042,40.25c3.934,0,7.125,2.91,7.125,6.5  s-3.191,6.5-7.125,6.5c-3.936,0-7.125-2.91-7.125-6.5S44.106,40.25,48.042,40.25z M55.221,95.845H41.143V59.11h14.078V95.845z   M103.059,95.845H88.913v-20.2c0-2.306-0.428-3.938-1.281-4.896c-0.854-0.956-2.053-1.436-3.596-1.436  c-1.707,0-3.092,0.646-4.152,1.938c-1.061,1.292-1.59,3.609-1.59,6.953v17.641H64.215V59.11h13.109v5.983  c1.959-2.443,3.943-4.19,5.949-5.24c2.006-1.049,4.449-1.573,7.332-1.573c3.898,0,6.947,1.158,9.15,3.476  c2.201,2.317,3.303,5.897,3.303,10.74V95.845z" /></svg>
